<svg width="311" height="59" viewBox="0 0 311 59" fill="none" xmlns="http://www.w3.org/2000/svg">
<g clip-path="url(#clip0_300_1075)">
<path d="M86.9843 41.7289C81.2488 41.7289 77.6945 36.6186 77.6945 29.5481C77.6945 22.5477 80.6857 17.3323 86.949 17.3323C91.0658 17.3323 93.7754 19.9575 94.2686 23.4227H103.84C103.347 19.1174 101.411 15.3372 98.0336 12.8171C95.2888 10.7169 91.4884 9.42188 86.9843 9.42188C75.4424 9.42188 67.9473 18.1024 67.9473 29.5481C67.9473 41.0639 75.6888 49.4994 87.055 49.4994C92.5086 49.4994 96.4849 47.9944 99.441 45.1241C102.08 42.604 103.84 39.1037 104.086 35.2885H94.5144C94.0926 39.0338 91.2771 41.7289 86.9843 41.7289Z" fill="#BFBCB8"/>
<path d="M121.751 20.3789C112.883 20.3789 106.937 26.6793 106.937 34.9749C106.937 43.2704 112.883 49.5708 121.751 49.5708C130.688 49.5708 136.53 43.2704 136.53 34.9749C136.53 26.6793 130.688 20.3789 121.751 20.3789ZM121.716 43.3054C117.88 43.3054 115.874 39.9802 115.874 34.9749C115.874 29.9695 117.88 26.5743 121.716 26.5743C125.551 26.5743 127.627 29.9695 127.627 34.9749C127.592 39.9802 125.551 43.3054 121.716 43.3054Z" fill="#BFBCB8"/>
<path d="M149.051 17.4477C150.933 15.575 150.933 12.5389 149.051 10.6662C147.168 8.79355 144.116 8.79355 142.233 10.6662C140.351 12.5389 140.351 15.575 142.233 17.4477C144.116 19.3204 147.168 19.3204 149.051 17.4477Z" fill="#BFBCB8"/>
<path d="M137.973 27.3087H141.667V48.695H150.465V21.1133H137.973V27.3087Z" fill="#BFBCB8"/>
<path d="M172.106 20.3086C168.271 20.3086 165.596 21.9187 163.556 24.8939H163.38V21.1137H154.899V48.6604H163.732V33.4344C163.732 30.0392 165.667 27.6241 168.588 27.6241C171.473 27.6241 172.916 29.6191 172.916 32.5244V48.6604H181.748V30.7393C181.748 24.6139 178.159 20.3086 172.106 20.3086Z" fill="#BFBCB8"/>
<path d="M202.437 10.1914H185.935V48.6589H201.84C206.696 48.6589 210.601 47.4339 213.628 45.1587C217.956 41.8685 220.349 36.4431 220.349 29.6527C220.349 17.8919 213.135 10.1914 202.437 10.1914ZM201.136 40.6784H195.506V18.1719H201.241C207.259 18.1719 210.672 22.6872 210.672 29.6877C210.637 36.7231 207.399 40.6784 201.136 40.6784Z" fill="#BFBCB8"/>
<path d="M246.493 23.9497C244.101 21.8146 240.969 20.5195 237.028 20.5195C228.582 20.5195 222.812 26.8199 222.812 35.0455C222.812 43.376 228.442 49.6764 237.591 49.6764C241.11 49.6764 243.925 48.7663 246.248 47.1563C248.675 45.4762 250.294 43.1309 250.892 40.6459H242.306C241.532 42.361 240.019 43.376 237.697 43.376C234.072 43.376 232.031 41.0659 231.468 37.3556H251.385C251.42 31.7202 249.801 26.9599 246.493 23.9497ZM231.503 32.1053C232.102 28.815 233.825 26.715 237.169 26.715C240.019 26.715 242.095 28.815 242.412 32.1053H231.503Z" fill="#BFBCB8"/>
<path d="M268.768 31.4401C265.249 30.81 262.117 30.53 262.117 28.6049C262.117 26.8898 263.806 26.0847 265.952 26.0847C268.381 26.0847 270.07 26.8548 270.386 29.3049H278.515C278.093 23.8796 273.87 20.4844 266.023 20.4844C259.478 20.4844 254.059 23.4946 254.059 29.3049C254.059 35.7803 259.197 37.0404 264.017 37.8455C267.712 38.4755 271.055 38.7556 271.055 41.2407C271.055 43.0258 269.366 43.9709 266.727 43.9709C263.806 43.9709 261.976 42.6408 261.624 39.8756H253.285C253.566 45.966 258.633 49.6762 266.762 49.6762C274.011 49.6762 279.359 46.5611 279.359 40.5407C279.395 33.5052 273.659 32.2451 268.768 31.4401Z" fill="#BFBCB8"/>
<path d="M300.121 31.4728L309.869 21.1121H299.699L291.465 30.4228V10.1914H282.773V48.6939H291.465V40.2233L294.139 37.4232L300.79 48.6939H310.995L300.121 31.4728Z" fill="#BFBCB8"/>
<path d="M29.1694 32.1055C30.6465 32.1055 31.8438 30.9145 31.8438 29.4453C31.8438 27.9761 30.6465 26.7852 29.1694 26.7852C27.6925 26.7852 26.4951 27.9761 26.4951 29.4453C26.4951 30.9145 27.6925 32.1055 29.1694 32.1055Z" fill="#BFBCB8"/>
<path d="M50.4946 32.1055C51.9716 32.1055 53.169 30.9145 53.169 29.4453C53.169 27.9761 51.9716 26.7852 50.4946 26.7852C49.0176 26.7852 47.8203 27.9761 47.8203 29.4453C47.8203 30.9145 49.0176 32.1055 50.4946 32.1055Z" fill="#BFBCB8"/>
<path d="M50.4946 53.3516C51.9716 53.3516 53.169 52.1606 53.169 50.6914C53.169 49.2223 51.9716 48.0312 50.4946 48.0312C49.0176 48.0312 47.8203 49.2223 47.8203 50.6914C47.8203 52.1606 49.0176 53.3516 50.4946 53.3516Z" fill="#BFBCB8"/>
<path d="M58.3412 7.7073C58.0596 3.82205 54.9279 0.671843 51.022 0.391825C48.5236 0.216814 46.2715 1.16187 44.688 2.77198C43.4916 3.99706 41.8729 4.7321 40.1487 4.7321H39.5153C37.7559 4.7321 36.102 3.99706 34.8704 2.73698C33.4277 1.26688 31.4219 0.391825 29.2051 0.391825C26.9881 0.391825 24.9824 1.30188 23.5397 2.73698C22.3081 3.99706 20.6542 4.7321 18.8948 4.7321H18.2966C16.5724 4.7321 14.9185 4.06706 13.722 2.84199C13.4758 2.59697 13.2294 2.35196 12.9831 2.14194C9.9921 -0.273218 5.5935 -0.203214 2.70804 2.35196C-0.77563 5.39715 -0.916384 10.7175 2.32096 13.9377C2.35616 13.9727 2.39134 14.0077 2.42653 14.0427C3.69332 15.2328 4.3619 16.9129 4.3619 18.628V19.2231C4.3619 20.9732 3.62294 22.6183 2.35615 23.8433C0.878232 25.2785 -0.00148045 27.2735 -0.00148045 29.4787C-0.00148045 31.6838 0.913424 33.679 2.35615 35.1141C3.62294 36.3392 4.3619 37.9843 4.3619 39.7344V40.5395C4.3619 42.2546 3.62294 43.8646 2.39134 45.0547C0.843048 46.5599 -0.107046 48.695 -0.00148045 51.0401C0.174462 55.1704 3.55256 58.4956 7.66963 58.6356C10.0625 58.7056 12.209 57.7605 13.722 56.1855C14.9185 54.9604 16.5371 54.1903 18.2614 54.1903H18.93C20.6542 54.1903 22.2729 54.9254 23.4693 56.1855C25.0528 57.8306 27.3401 58.7756 29.8385 58.6006C33.7443 58.3206 36.9113 55.1703 37.1929 51.2501C37.5095 46.5949 33.8499 42.7446 29.2402 42.7446C27.0585 42.7446 25.0528 43.6196 23.61 45.0547C22.3784 46.2798 20.7246 47.0149 19.0003 47.0149H18.2614C16.5371 47.0149 14.8481 46.3498 13.6165 45.0897C13.5813 45.0547 13.5813 45.0547 13.5461 45.0197C12.2793 43.7946 11.5404 42.1495 11.5404 40.3994V39.6994C11.5404 37.9493 12.2793 36.3042 13.5461 35.0791C15.024 33.644 15.9038 31.6488 15.9038 29.4437C15.9038 27.2386 14.9888 25.2435 13.5461 23.8083C12.2793 22.5832 11.5404 20.9382 11.5404 19.1881V18.558C11.5404 16.8079 12.2793 15.1627 13.5109 13.9377C13.5461 13.9027 13.5461 13.9027 13.5813 13.8677C13.6165 13.8327 13.6165 13.8327 13.6517 13.7977C14.8833 12.5726 16.5371 11.8376 18.2966 11.8376H18.93C20.6894 11.8376 22.3432 12.5726 23.5749 13.8327C25.0176 15.3028 27.0233 16.1779 29.2402 16.1779C31.4571 16.1779 33.4628 15.2678 34.9056 13.8327C36.1372 12.5726 37.7911 11.8376 39.5504 11.8376H40.1135C41.8729 11.8376 43.5268 12.5726 44.7584 13.8327C46.2011 15.3028 48.2068 16.1779 50.4238 16.1779C54.9983 16.2129 58.6578 12.3626 58.3412 7.7073Z" fill="#BFBCB8"/>
</g>
<defs>
<clipPath id="clip0_300_1075">
<rect width="311.005" height="58.4746" fill="white" transform="translate(-0.00976562 0.371094)"/>
</clipPath>
</defs>
</svg>
